Patient4_TMGait_0pt6_01_right_31_GRF.mot
version=1
nRows=46
nColumns=19
inDegrees=no
endheader
time	F1x	F1y	F1z	M1x	M1y	M1z	F2x	F2y	F2z	M2x	M2y	M2z	EC1x	EC1y	EC1z	EC2x	EC2y	EC2z
37.09	22.1426	778.0199	68.1749	-285.3482	-60.8773	753.3533	-14.189	1.3227	-3.427	1.0784	7.5424	6.3497	-0.0592	0.0182	-0.0073	-0.0462	0.0165	0.9585
37.102	17.4132	771.6359	64.3727	-283.1988	-57.0735	738.9605	-9.6888	1.793	-2.3725	1.0941	5.2369	5.1998	-0.0592	0.0182	-0.0073	-0.0462	0.0165	0.9585
37.114	13.6171	765.3359	60.9293	-280.9353	-53.4361	725.1482	-5.88	2.2105	-1.4674	1.1083	3.2693	4.2568	-0.0592	0.0182	-0.0073	-0.0462	0.0165	0.9585
37.126	11.0247	759.647	58.0149	-278.7405	-50.1194	712.7693	-2.9538	2.5438	-0.76677	1.123	1.7508	3.5544	-0.0592	0.0182	-0.0073	-0.0462	0.0165	0.9585
37.138	9.603	754.8815	55.7393	-276.7396	-47.2455	702.1844	-0.93403	2.8108	-0.28256	1.1442	0.69804	3.1296	-0.0592	0.0182	-0.0073	-0.0462	0.0165	0.9585
37.15	9.2556	751.1248	54.0422	-274.9922	-44.7662	693.3524	0.33378	2.9903	0.019672	1.1633	0.034227	2.8908	-0.0592	0.0182	-0.0073	-0.0462	0.0165	0.9585
37.162	9.8299	748.2348	52.902	-273.4729	-42.6697	685.9376	0.99016	3.0903	0.17781	1.1727	-0.31666	2.7884	-0.0592	0.0182	-0.0073	-0.0462	0.0165	0.9585
37.174	11.1878	745.8971	52.1974	-272.0949	-40.8445	679.3961	1.2333	3.0643	0.23181	1.1492	-0.44212	2.6942	-0.0592	0.0182	-0.0073	-0.0462	0.0165	0.9585
37.186	13.2082	743.7297	51.8789	-270.736	-39.2377	673.1756	1.18	2.8746	0.20721	1.0683	-0.39926	2.5262	-0.0592	0.0182	-0.0073	-0.0462	0.0165	0.9585
37.198	15.8047	741.3918	51.8289	-269.2851	-37.7327	666.8075	0.97672	2.4332	0.12768	0.89218	-0.25143	2.1124	-0.0592	0.0182	-0.0073	-0.0462	0.0165	0.9585
37.21	18.8794	738.6952	51.9995	-267.6764	-36.2859	660.0367	0.6963	1.6604	0.011953	0.58271	-0.043655	1.3465	-0.0592	0.0182	-0.0073	-0.0462	0.0165	0.9585
37.222	22.3652	735.6783	52.32	-265.9178	-34.8344	652.8808	0.43423	0.4507	-0.11963	0.095738	0.16893	0.089436	-0.0592	0.0182	-0.0073	-0.0462	0.0165	0.9585
37.234	26.1653	732.6278	52.798	-264.0956	-33.4033	645.6439	0.23348	-1.2414	-0.24826	-0.59411	0.34493	-1.7128	-0.0592	0.0182	-0.0073	-0.0462	0.0165	0.9585
37.246	30.1694	730.005	53.4475	-262.3538	-32.0361	638.8123	0.15241	-3.4081	-0.34147	-1.484	0.42787	-4.0623	-0.0592	0.0182	-0.0073	-0.0462	0.0165	0.9585
37.258	34.246	728.3125	54.3252	-260.8458	-30.8256	632.9517	0.22729	-5.8983	-0.36403	-2.511	0.36348	-6.7786	-0.0592	0.0182	-0.0073	-0.0462	0.0165	0.9585
37.27	38.259	727.9067	55.4716	-259.6796	-29.8629	628.4795	0.51216	-8.3571	-0.26136	-3.5238	0.073873	-9.4693	-0.0592	0.0182	-0.0073	-0.0462	0.0165	0.9585
37.282	42.0155	728.8199	56.9059	-258.8576	-29.2363	625.5191	1.0525	-10.1189	0.026252	-4.2419	-0.51999	-11.4019	-0.0592	0.0182	-0.0073	-0.0462	0.0165	0.9585
37.294	45.3733	730.7172	58.605	-258.2635	-28.991	623.8297	1.8858	-10.1409	0.56605	-4.2235	-1.4964	-11.4376	-0.0592	0.0182	-0.0073	-0.0462	0.0165	0.9585
37.306	48.1925	732.9412	60.4792	-257.6809	-29.1084	622.8696	3.0158	-6.9403	1.4115	-2.8386	-2.9011	-7.9633	-0.0592	0.0182	-0.0073	-0.0462	0.0165	0.9585
37.318	50.4222	734.5883	62.3999	-256.8175	-29.5131	621.8375	4.3761	1.4129	2.5798	0.728	-4.7129	1.1205	-0.0592	0.0182	-0.0073	-0.0462	0.0165	0.9585
37.33	52.0514	734.6078	64.1764	-255.3423	-30.0591	619.8223	5.797	17.1508	4.0379	7.4156	-6.8083	18.2305	-0.0592	0.0182	-0.0073	-0.0462	0.0165	0.9585
37.342	53.1412	731.8737	65.5993	-252.9146	-30.5685	615.8367	6.9354	42.5036	5.6422	18.1545	-8.8719	45.8008	-0.0592	0.0182	-0.0073	-0.0462	0.0165	0.9585
37.354	53.7521	725.2627	66.4162	-249.2048	-30.8227	608.9057	7.2591	79.0974	7.101	33.6152	-10.3437	85.5996	-0.0592	0.0182	-0.0073	-0.0462	0.0165	0.9585
37.366	53.9813	713.6504	66.3783	-243.8913	-30.6031	598.0389	5.8736	127.1431	7.9705	53.858	-10.364	137.8739	-0.0592	0.0182	-0.0073	-0.0462	0.0165	0.9585
37.378	53.866	695.9363	65.2283	-236.6637	-29.6956	582.2745	1.806	184.2555	7.7742	77.8445	-8.0028	200.0307	-0.0592	0.0182	-0.0073	-0.0462	0.0165	0.9585
37.39	53.4353	671.1283	62.7873	-227.2436	-27.9566	560.7327	-5.1619	244.8373	5.7923	103.1703	-2.4458	265.9837	-0.0592	0.0182	-0.0073	-0.0462	0.0165	0.9585
37.402	52.6473	638.5888	59.0088	-215.4589	-25.3647	532.8528	-13.8717	301.7486	1.4405	126.8188	6.3498	327.8444	-0.0592	0.0182	-0.0073	-0.0462	0.0165	0.9585
37.414	51.3819	598.2408	54.0422	-201.2964	-22.0786	498.5508	-22.9613	350.8034	-4.8182	147.0342	17.2388	380.902	-0.0592	0.0182	-0.0073	-0.0462	0.0165	0.9585
37.426	49.4444	550.6366	48.2051	-184.9173	-18.4031	458.3244	-31.2539	391.7019	-12.0586	163.7216	28.7404	424.6599	-0.0592	0.0182	-0.0073	-0.0462	0.0165	0.9585
37.438	46.7603	496.8892	41.897	-166.6514	-14.6654	413.1212	-37.9597	426.1277	-19.3588	177.6432	39.5211	460.8936	-0.0592	0.0182	-0.0073	-0.0462	0.0165	0.9585
37.45	43.202	438.6652	35.4408	-147.0081	-11.1351	364.367	-42.6823	456.3944	-25.7065	189.8419	48.371	492.0713	-0.0592	0.0182	-0.0073	-0.0462	0.0165	0.9585
37.462	38.6816	378.0512	29.1052	-126.6404	-8.0304	313.7993	-45.4402	484.653	-30.6073	201.2623	54.767	520.5651	-0.0592	0.0182	-0.0073	-0.0462	0.0165	0.9585
37.474	33.1451	317.4044	23.1381	-106.2953	-5.5477	263.3942	-46.4195	512.6057	-33.7395	212.6342	58.4818	548.2125	-0.0592	0.0182	-0.0073	-0.0462	0.0165	0.9585
37.486	26.6864	259.1378	17.751	-86.7511	-3.8118	215.1298	-46.09	541.4457	-35.4898	224.4141	60.1064	576.4104	-0.0592	0.0182	-0.0073	-0.0462	0.0165	0.9585
37.498	19.5895	205.4776	13.1283	-68.7384	-2.8662	170.8014	-44.9016	571.7189	-36.3286	236.7668	60.3503	605.8256	-0.0592	0.0182	-0.0073	-0.0462	0.0165	0.9585
37.51	12.3595	158.1376	9.3669	-52.8341	-2.6068	131.7583	-43.3879	603.3182	-37.0137	249.5574	60.2144	636.4932	-0.0592	0.0182	-0.0073	-0.0462	0.0165	0.9585
37.522	5.5893	118.0667	6.5233	-39.3624	-2.8747	98.7134	-41.9515	635.4907	-38.0183	262.4084	60.3747	667.6925	-0.0592	0.0182	-0.0073	-0.0462	0.0165	0.9585
37.534	-0.19691	85.3454	4.5017	-28.3604	-3.4095	71.6935	-40.9835	667.1596	-39.7711	274.8153	61.4189	698.3938	-0.0592	0.0182	-0.0073	-0.0462	0.0165	0.9585
37.546	-4.6313	59.4092	3.136	-19.6483	-3.9582	50.226	-40.6323	697.2014	-42.2788	286.3025	63.4191	727.4467	-0.0592	0.0182	-0.0073	-0.0462	0.0165	0.9585
37.558	-7.517	39.3934	2.2037	-12.9418	-4.2798	33.6154	-40.8995	724.6925	-45.4033	296.5002	66.2326	753.9136	-0.0592	0.0182	-0.0073	-0.0462	0.0165	0.9585
37.57	-8.7821	24.3767	1.5305	-7.9321	-4.2261	21.107	-41.5583	748.7566	-48.8075	305.0905	69.4434	776.837	-0.0592	0.0182	-0.0073	-0.0462	0.0165	0.9585
37.582	-8.556	13.5297	0.99664	-4.3368	-3.7577	12.0333	-42.3601	768.4497	-52.2455	311.7377	72.7052	795.2178	-0.0592	0.0182	-0.0073	-0.0462	0.0165	0.9585
37.594	-7.2356	6.1288	0.57601	-1.909	-3.0038	5.7912	-43.0091	782.8287	-55.4447	316.124	75.6357	808.0457	-0.0592	0.0182	-0.0073	-0.0462	0.0165	0.9585
37.606	-5.5127	1.5925	0.27031	-0.442	-2.1931	1.9384	-43.2779	791.246	-58.2015	318.0498	77.9506	814.6431	-0.0592	0.0182	-0.0073	-0.0462	0.0165	0.9585
37.618	-3.7891	-0.79366	0.086302	0.30749	-1.4728	-0.11612	-43.0162	793.508	-60.3643	317.5066	79.4521	814.7874	-0.0592	0.0182	-0.0073	-0.0462	0.0165	0.9585
37.63	-2.3473	-1.6749	-0.0075136	0.56064	-0.91052	-0.87699	-42.1361	790.0998	-61.8676	314.7478	80.0608	808.9679	-0.0592	0.0182	-0.0073	-0.0462	0.0165	0.9585
